<?xml version="1.0" encoding="iso-8859-1"?>
<!-- Generator: Adobe Illustrator 18.0.0, SVG Export Plug-In . SVG Version: 6.00 Build 0)  -->
<!DOCTYPE svg PUBLIC "-//W3C//DTD SVG 1.1//EN" "http://www.w3.org/Graphics/SVG/1.1/DTD/svg11.dtd">
<svg version="1.1" id="Capa_1" xmlns="http://www.w3.org/2000/svg" xmlns:xlink="http://www.w3.org/1999/xlink" x="0px" y="0px"
	 viewBox="0 0 57.992 57.992" style="enable-background:new 0 0 57.992 57.992;" xml:space="preserve">
<g>
	<path d="M51.559,17.85l-2.358-2.948l-0.645-3.864c-0.187-1.127-0.716-2.148-1.53-2.952c-0.731-0.722-1.56-1.594-2.159-2.595
		L44.031,4.1c-0.702-1.17-1.843-2.013-3.149-2.388L38.657,8.11c1.426,0.232,2.617,0.822,3.55,1.763
		c1.322,1.334,1.783,3.047,1.945,4.123h-2.034c-0.154-0.791-0.505-1.888-1.342-2.725c-0.693-0.694-1.639-1.091-2.795-1.217
		l-1.644,4.571c-0.024,0.059-0.05,0.113-0.063,0.176l-0.07,0.195l0.065,0.005c0,0.065-0.019,0.127-0.005,0.194l2.055,10.273
		l-4.528,4.528H23.672l-3.592-4.31l2.16-10.369c0.079-0.381-0.053-0.745-0.302-0.995l-1.359-4.247
		c-1.209,0.111-2.196,0.509-2.912,1.226c-0.826,0.827-1.179,1.907-1.336,2.695h-2.035c0.166-1.077,0.63-2.772,1.94-4.093
		c0.969-0.977,2.218-1.571,3.717-1.784l-2.086-6.517l-0.039,0.009C16.392,1.93,15.133,2.837,14.375,4.1l-0.836,1.393
		c-0.6,1-1.428,1.873-2.159,2.595c-0.814,0.803-1.344,1.824-1.53,2.95l-0.536,3.211L6.433,17.85c-1.469,1.836-1.633,4.391-0.4,6.212
		c0.519,0.768,1.154,1.226,1.767,1.51l-0.38,3.428c-0.147,1.325-0.147,2.669,0,3.994l0.193,1.741l11.312,7.541l3.06,4.59
		l3.264-6.324c-2.908-0.722-5.564-2.223-7.698-4.433c-0.36-0.373-0.686-0.742-1.01-1.112h4.076l3-3h3.586v9.118l-4.018,7.784
		c0.035,0.355-0.109,0.718-0.428,0.93c-0.022,0.015-0.047,0.02-0.069,0.032l-2.394,4.638l1.153,1.153
		c0.155,0.18,1.571,1.769,3.293,2.259l0.316,0.045c0.632,0,1.146-0.515,1.146-1.148V54.47c0-0.261,0.213-0.474,0.474-0.474h4.053
		c0.261,0,0.474,0.213,0.474,0.474v2.373c0,0.634,0.514,1.149,1.145,1.149l0.067-0.002c2.074-0.123,4.225-2.038,4.495-2.287
		l0.461-0.461l-7.943-14.213c-0.076,0.001-0.15,0.011-0.226,0.011v-9.044h4.586l3,3h5.076c-0.324,0.369-0.65,0.739-1.01,1.112
		c-2.506,2.595-5.727,4.219-9.239,4.736l4.284,7.666l3.521-6.162l11.594-9.877c0.095-1.156,0.099-2.32-0.029-3.472l-0.404-3.634
		c0.485-0.289,0.968-0.699,1.377-1.304C53.192,22.239,53.027,19.685,51.559,17.85z M19.789,32.996h-4.842
		c-1.727-2.426-2.638-4.767-2.735-7h5.522l4.116,4.939L19.789,32.996z M43.459,32.996h-5.842l-2-2l5-5h5.577
		C46.098,28.229,45.186,30.57,43.459,32.996z"/>
	<path d="M24.203,15.697l-2.146,10.299h14.326l-2.18-10.901v-1.099l4.725-12.752l-1.604-0.356c-5.322-1.184-10.92-1.184-16.242,0
		l-1.255,0.279l4.376,12.83V15.697z"/>
	<path d="M17.482,43.717l-9.526-6.35c0.372,2.243,1.128,4.376,2.307,6.341c0.761,1.269,1.676,2.44,2.72,3.482l5.827,5.825
		l2.125-4.117L17.482,43.717z"/>
	<path d="M37.071,50.492c-0.01,0.018-0.025,0.031-0.036,0.047l1.806,3.232l6.582-6.582c1.044-1.043,1.959-2.214,2.72-3.483
		c1.348-2.246,2.177-4.704,2.467-7.306l0.117-1.056l-9.742,8.299L37.071,50.492z"/>
</g>
<g>
</g>
<g>
</g>
<g>
</g>
<g>
</g>
<g>
</g>
<g>
</g>
<g>
</g>
<g>
</g>
<g>
</g>
<g>
</g>
<g>
</g>
<g>
</g>
<g>
</g>
<g>
</g>
<g>
</g>
</svg>
